<svg width="20" height="20" viewBox="0 0 20 20" fill="none" xmlns="http://www.w3.org/2000/svg">
<g clip-path="url(#clip0_15673_230)">
<path d="M10.8333 0.833199C10.8333 0.612186 10.9211 0.400224 11.0774 0.243944C11.2337 0.0876633 11.4457 -0.000134037 11.6667 -0.000134037C13.8761 0.00229229 15.9943 0.881045 17.5565 2.44332C19.1188 4.0056 19.9976 6.12381 20 8.3332C20 8.55421 19.9122 8.76618 19.7559 8.92246C19.5996 9.07874 19.3877 9.16653 19.1667 9.16653C18.9457 9.16653 18.7337 9.07874 18.5774 8.92246C18.4211 8.76618 18.3333 8.55421 18.3333 8.3332C18.3313 6.5657 17.6283 4.87116 16.3785 3.62135C15.1287 2.37153 13.4342 1.66852 11.6667 1.66653C11.4457 1.66653 11.2337 1.57874 11.0774 1.42246C10.9211 1.26617 10.8333 1.05421 10.8333 0.833199ZM11.6667 4.99987C12.5507 4.99987 13.3986 5.35106 14.0237 5.97618C14.6488 6.6013 15 7.44914 15 8.3332C15 8.55421 15.0878 8.76618 15.2441 8.92246C15.4004 9.07874 15.6123 9.16653 15.8333 9.16653C16.0543 9.16653 16.2663 9.07874 16.4226 8.92246C16.5789 8.76618 16.6667 8.55421 16.6667 8.3332C16.6653 7.00752 16.1381 5.73652 15.2007 4.79913C14.2633 3.86173 12.9923 3.33452 11.6667 3.3332C11.4457 3.3332 11.2337 3.421 11.0774 3.57728C10.9211 3.73356 10.8333 3.94552 10.8333 4.16653C10.8333 4.38755 10.9211 4.59951 11.0774 4.75579C11.2337 4.91207 11.4457 4.99987 11.6667 4.99987ZM19.2442 13.949C19.7271 14.4333 19.9983 15.0893 19.9983 15.7732C19.9983 16.4571 19.7271 17.1131 19.2442 17.5974L18.4858 18.4715C11.6608 25.0057 -4.9475 8.40153 1.48583 1.55487L2.44416 0.721533C2.92897 0.252097 3.57911 -0.00759314 4.25392 -0.001355C4.92873 0.00488313 5.57395 0.276548 6.05 0.754866C6.07583 0.780699 7.62 2.78653 7.62 2.78653C8.07819 3.26789 8.33325 3.90731 8.33217 4.57187C8.33108 5.23643 8.07393 5.87501 7.61417 6.35487L6.64917 7.5682C7.18321 8.86579 7.96838 10.0451 8.95959 11.0383C9.95079 12.0315 11.1285 12.819 12.425 13.3557L13.6458 12.3849C14.1258 11.9255 14.7642 11.6686 15.4286 11.6677C16.0929 11.6667 16.7321 11.9218 17.2133 12.3799C17.2133 12.3799 19.2183 13.9232 19.2442 13.949ZM18.0975 15.1607C18.0975 15.1607 16.1033 13.6265 16.0775 13.6007C15.9058 13.4305 15.6738 13.335 15.4321 13.335C15.1903 13.335 14.9583 13.4305 14.7867 13.6007C14.7642 13.624 13.0833 14.9632 13.0833 14.9632C12.9701 15.0534 12.8353 15.1125 12.6922 15.1347C12.5491 15.1569 12.4028 15.1414 12.2675 15.0899C10.5879 14.4645 9.06228 13.4855 7.79403 12.2191C6.52578 10.9527 5.5445 9.42856 4.91667 7.74987C4.861 7.61275 4.84285 7.46327 4.86408 7.31682C4.88532 7.17036 4.94518 7.0322 5.0375 6.91653C5.0375 6.91653 6.37667 5.23487 6.39917 5.2132C6.56939 5.04152 6.6649 4.80955 6.6649 4.56778C6.6649 4.32602 6.56939 4.09404 6.39917 3.92237C6.37333 3.89737 4.83917 1.90153 4.83917 1.90153C4.66492 1.74529 4.4375 1.66161 4.20354 1.66765C3.96957 1.6737 3.74678 1.769 3.58083 1.93403L2.6225 2.76737C-2.07917 8.4207 12.3133 22.0149 17.2675 17.3332L18.0267 16.4582C18.2046 16.2934 18.3114 16.0659 18.3246 15.8238C18.3379 15.5817 18.2564 15.3439 18.0975 15.1607Z" fill="#B83A3A"/>
</g>
<defs>
<clipPath id="clip0_15673_230">
<rect width="20" height="20" fill="white"/>
</clipPath>
</defs>
</svg>
